<svg width="84" height="84" viewBox="0 0 84 84" fill="none" xmlns="http://www.w3.org/2000/svg">
<g clip-path="url(#clip0_5_21)">
<path d="M0 41.6934C0 18.667 18.6666 0 41.6934 0C64.7199 0 83.3868 18.6666 83.3865 41.6934C83.3865 64.7199 64.7199 83.3868 41.6934 83.3865C18.667 83.3865 0 64.7199 0 41.6934ZM41.6934 79.4895C62.5677 79.4895 79.4898 62.5677 79.4895 41.6934C79.4895 20.8192 62.5677 3.89701 41.6934 3.89701C20.8192 3.89701 3.89701 20.8188 3.89701 41.6934C3.89701 62.5677 20.8188 79.4898 41.6934 79.4895Z" fill="#8ABE53"/>
<g clip-path="url(#clip1_5_21)">
<g clip-path="url(#clip2_5_21)">
<path d="M55.1582 25.8064C55.1568 25.8379 55.1568 25.8708 55.154 25.9028C55.0382 27.3411 54.2621 29.2815 53.5322 30.3084C52.7999 31.3367 51.2713 33.2545 50.1065 34.3732C48.944 35.491 49.697 35.6976 46.5904 37.5015C43.4875 39.3045 41.1358 39.3045 40.0623 41.7475C40.0623 41.7475 40.1964 41.885 40.0378 42.204C40.0378 42.204 40.7908 42.5241 41.7067 43.6649C41.7067 43.6649 43.1317 43.6268 43.6527 44.0089C43.6527 44.0089 46.0732 44.0932 46.221 44.2485C46.3678 44.4056 46.3038 44.5351 45.9866 44.9262C45.6731 45.3177 45.0806 44.9568 44.8867 45.3714C44.69 45.7837 43.079 46.122 43.079 46.122C43.0983 47.7608 45.6797 49.2889 51.7702 49.4348C51.7702 49.4348 54.3746 51.1874 49.8834 64.8164C47.7081 66.1205 47.0987 64.0573 43.7953 62.0453C40.4939 60.0348 41.2695 57.1136 39.5583 55.5153C37.848 53.9171 37.4112 51.5884 36.7048 51.5639C35.9975 51.5432 33.121 52.1127 32.2536 52.0444C31.3839 51.9762 31.2469 52.636 29.627 52.6158C28.0043 52.5923 28.3949 52.203 28.3949 52.203C28.3949 52.203 27.3214 52.1362 27.3214 50.6283C27.3214 49.1223 27.7337 50.1718 31.2714 46.9522C31.2714 46.9522 31.9355 46.0623 32.1388 45.9032C32.1388 45.9032 32.1604 44.8753 32.6183 44.5784C33.0734 44.2809 33.7836 43.9844 33.9432 43.8705C34.1018 43.7571 34.6265 43.5058 34.5813 43.1406C34.5376 42.774 34.4227 43.1175 34.2834 42.9114C34.147 42.7062 34.2411 42.3636 34.1248 41.404C34.01 40.4453 31.2248 38.4136 30.7923 36.8831C30.3579 35.354 31.9919 38.2244 32.9276 38.3844C33.8646 38.5449 35.1998 38.6193 35.1301 36.9062C35.0628 35.194 35.5424 33.6193 34.6261 32.2709C33.7135 30.924 32.6052 28.4904 32.8579 26.2982C33.1012 24.1601 34.2279 22.9252 34.283 22.8673C34.2303 22.9492 33.1873 24.6293 33.7441 28.1473C34.3136 31.7547 36.2921 31.4036 36.2921 31.4036C36.2921 31.4036 38.8297 30.2618 39.1248 25.9697C39.4147 21.7773 40.9894 18.4344 41.0633 18.2815C41.0374 18.3925 40.5748 20.2082 40.5075 22.1995C40.4383 24.2542 40.7899 24.2806 40.7899 24.2806L43.3929 21.8131C43.3929 21.8131 42.7552 22.6131 41.6366 24.8279C41.116 25.7682 40.9989 25.2614 40.3348 27.1792C39.6736 29.0975 40.1531 28.48 39.4453 29.7827C38.7365 31.084 37.5948 32.3175 37.4578 33.6414C37.4578 33.6414 37.0197 35.3644 36.9773 37.1038C36.9364 38.8428 36.4545 40.5371 36.6126 40.6731C36.7726 40.8105 37.07 40.7192 37.0009 41.1757L37.5835 40.8006L37.8955 40.7856L39.161 39.7921C39.0697 39.1299 38.4085 38.4447 38.4782 37.2121C38.545 35.9795 39.5037 32.9877 39.6853 32.9877C39.6853 32.9877 39.1841 36.3212 39.7329 37.2577C40.2793 38.1929 40.5075 38.399 40.9871 38.0569C41.4667 37.7138 42.1726 37.7364 42.4724 37.5307C42.7679 37.326 46.2718 36.4953 47.6418 34.3483C47.6418 34.3483 47.5966 33.4819 46.9109 32.3622C46.2252 31.2426 46.7292 27.9101 46.7292 27.9101C46.7292 27.9101 47.1142 28.3313 47.1387 29.8382C47.1599 31.3457 47.5514 31.9735 48.6894 32.6823C49.8326 33.3896 51.9099 29.9648 52.7321 28.2532C53.5515 26.5391 53.9671 25.4661 53.7821 24.7587C53.6018 24.0523 54.3106 18.1619 54.3106 18.1619C54.3106 18.1619 54.7827 18.2438 54.9097 22.7059C56.2501 21.3947 55.6933 20.2685 55.6933 20.2685C56.4939 20.9264 55.8547 23.5172 55.1582 25.8064Z" fill="#8ABE53"/>
</g>
</g>
</g>
<defs>
<clipPath id="clip0_5_21">
<rect width="83.3866" height="83.3866" fill="white"/>
</clipPath>
<clipPath id="clip1_5_21">
<rect width="28.7438" height="47.0627" fill="white" transform="translate(27.3214 18.1619)"/>
</clipPath>
<clipPath id="clip2_5_21">
<rect width="28.7438" height="47.0627" fill="white" transform="translate(27.3214 18.1619)"/>
</clipPath>
</defs>
</svg>
